# AST/ASF file generated using VICON BodyLanguage
# -----------------------------------------------
:version 1.10
:name VICON
:units
  mass 1.0
  length 0.45
  angle deg
:documentation
   .ast/.asf automatically generated from VICON data using
   VICON BodyBuilder and BodyLanguage model FoxedUp or BRILLIANT.MOD
:root
   order TX TY TZ RX RY RZ
   axis XYZ
   position 0 0 0  
   orientation 0 0 0 
:bonedata
  begin
     id 1 
     name lhipjoint
     direction 0.610259 -0.730986 0.305356 
     length 2.50941 
     axis 0 0 0  XYZ
  end
  begin
     id 2 
     name lfemur
     direction 0.34202 -0.939693 0  
     length 7.48822  
     axis 0 0 20  XYZ
    dof rx ry rz
    limits (-160.0 20.0)
           (-70.0 70.0)
           (-60.0 70.0)
  end
  begin
     id 3 
     name ltibia
     direction 0.34202 -0.939693 0   
     length 7.60141   
     axis 0 0 20   XYZ
    dof rx
    limits (-10.0 170.0)
  end
  begin
     id 4 
     name lfoot
     direction 0.0673488 -0.185039 0.980421   
     length 2.04049   
     axis -90 7.62852e-016 20   XYZ
    dof rx rz
    limits (-45.0 90.0)
           (-70.0 20.0)
  end
  begin
     id 5 
     name ltoes
     direction 1.5356e-011 -4.21729e-011 1   
     length 1.02897   
     axis -90 7.62852e-016 20   XYZ
    dof rx
    limits (-90.0 20.0)
  end
  begin
     id 6 
     name rhipjoint
     direction -0.57612 -0.754205 0.315056   
     length 2.43216  
     axis 0 0 0  XYZ 
  end
  begin
     id 7 
     name rfemur
     direction -0.34202 -0.939693 0   
     length 7.42799   
     axis 0 0 -20   XYZ
    dof rx ry rz
    limits (-160.0 20.0)
           (-70.0 70.0)
           (-70.0 60.0)
  end
  begin
     id 8 
     name rtibia
     direction -0.34202 -0.939693 0   
     length 7.69484   
     axis 0 0 -20   XYZ
    dof rx
    limits (-10.0 170.0)
 end
 begin
     id 9 
     name rfoot
     direction -0.111837 -0.30727 0.945028   
     length 2.15769  
     axis -90 -7.62852e-016 -20   XYZ
    dof rx rz
    limits (-45.0 90.0)
           (-20.0 70.0)
  end
  begin
     id 10 
     name rtoes
     direction -1.53539e-011 -4.21878e-011 1   
     length 1.07391   
     axis -90 -7.62852e-016 -20   XYZ
    dof rx
    limits (-90.0 20.0)
  end
  begin
     id 11 
     name lowerback
     direction 0.00552624 0.990109 -0.140195   
     length 2.12403   
     axis 0 0 0   XYZ
    dof rx ry rz
    limits (-20.0 45.0)
           (-30.0 30.0)
           (-30.0 30.0)
  end
  begin
     id 12 
     name upperback
     direction 0.00361898 0.999976 -0.00584723   
     length 2.13232   
     axis 0 0 0   XYZ
    dof rx ry rz
    limits (-20.0 45.0)
           (-30.0 30.0)
           (-30.0 30.0)
  end
  begin
     id 13 
     name thorax
     direction -0.000331275 0.998253 0.0590847   
     length 2.17688   
     axis 0 0 0   XYZ
    dof rx ry rz
    limits (-20.0 45.0)
           (-30.0 30.0)
           (-30.0 30.0)
  end
  begin
     id 14 
     name lowerneck
     direction -0.0561561 0.979832 0.19177   
     length 1.64159   
     axis 0 0 0   XYZ
    dof rx ry rz
    limits (-20.0 45.0)
           (-30.0 30.0)
           (-30.0 30.0)
  end
  begin
     id 15 
     name upperneck
     direction 0.0827153 0.979385 -0.184293   
     length 1.68939   
     axis 0 0 0   XYZ
    dof rx ry rz
    limits (-20.0 45.0)
           (-30.0 30.0)
           (-30.0 30.0)
  end
  begin
     id 16
     name head
     direction 0.0278583 0.995936 -0.0856488  
     length 1.70207  
     axis 0 0 0   XYZ
    dof rx ry rz
    limits (-20.0 45.0)
           (-30.0 30.0)
           (-30.0 30.0)
  end
  begin
     id 17 
     name lclavicle
     direction 0.950993 0.301131 -0.0702275  
     length 3.41652  
     axis 0 0 0   XYZ
    dof ry rz
    limits (-20.0 10.0)
           (0.0 20.0)
  end
  begin
     id 18 
     name lhumerus
     direction 1 -4.48981e-011 -3.9662e-029   
     length 5.32955   
     axis 180 -30 -90   XYZ
    dof rx ry rz
    limits (-60.0 90.0)
           (-90.0 90.0)
           (-90.0 90.0)
  end
  begin
     id 19
     name lradius
     direction 1 -4.48925e-011 -9.0549e-027   
     length 3.69232   
     axis 180 -30 -90   XYZ
    dof rx
    limits (-10.0 170.0)
  end
  begin
     id 20
     name lwrist
     direction 1 -4.49007e-011 -1.49005e-026   
     length 1.84616   
     axis 9.0955e-015 90 90   XYZ
    dof ry
    limits (-180.0 0.0)
 end
  begin
     id 21 
     name lhand
     direction 1 -4.49016e-011 -2.98023e-026   
     length 0.536598   
     axis 1.90115e-014 90 90   XYZ
    dof rx rz
    limits (-90.0 90.0)
           (-45.0 45.0)
  end
  begin
     id 22 
     name lfingers
     direction 1 -4.48924e-011 -5.9578e-026   
     length 0.432619   
     axis 3.80223e-014 90 90   XYZ
    dof rx
    limits (0.0 90.0)
  end
  begin
     id 23
     name lthumb
     direction 0.707107 -6.34947e-011 0.707107   
     length 0.621157   
     axis -90 45 -3.84942e-014   XYZ
    dof rx rz
    limits (-45.0 45.0)
           (-45.0 45.0)
  end
  begin
     id 24 
     name rclavicle
     direction -0.955495 0.276497 -0.102848   
     length 3.36357  
     axis 0 0 0   XYZ 
    dof ry rz
    limits (-10.0 20.0)
           (-20.0 0.0)
  end
  begin
     id 25 
     name rhumerus
     direction -1 -4.48961e-011 3.30983e-027  
     length 5.23431   
     axis 180 30 90   XYZ
    dof rx ry rz
    limits (-90.0 60.0)
           (-90.0 90.0)
           (-90.0 90.0)
  end
  begin
     id 26 
     name rradius
     direction -1 -4.48965e-011 -6.63263e-027   
     length 3.55301   
     axis 180 30 90   XYZ
    dof rx
    limits (-10.0 170.0)
  end
  begin
     id 27 
     name rwrist
     direction -1 -4.48942e-011 -1.48958e-026   
     length 1.77651   
     axis 9.0955e-015 -90 -90   XYZ
    dof ry
    limits (-180.0 0.0)
  end
  begin
     id 28
     name rhand
     direction -1 -4.48977e-011 -2.97966e-026   
     length 0.772522   
     axis 1.90115e-014 -90 -90   XYZ
    dof rx rz
    limits (-90.0 90.0)
           (-45.0 45.0)
  end
  begin
     id 29
     name rfingers
     direction -1 -4.49135e-011 -5.96389e-026   
     length 0.622827   
     axis 3.80223e-014 -90 -90   XYZ
    dof rx
    limits (0.0 90.0)
  end
  begin
     id 30
     name rthumb
     direction -0.707107 -6.34969e-011 0.707107   
     length 0.894259   
     axis -90 -45 3.84942e-014   XYZ
    dof rx rz
    limits (-45.0 45.0)
           (-45.0 45.0)
  end
:hierarchy
  begin
    root lhipjoint rhipjoint lowerback
    lhipjoint lfemur
    lfemur ltibia
    ltibia lfoot
    lfoot ltoes
    rhipjoint rfemur
    rfemur rtibia
    rtibia rfoot
    rfoot rtoes
    lowerback upperback
    upperback thorax
    thorax lowerneck lclavicle rclavicle
    lowerneck upperneck
    upperneck head
    lclavicle lhumerus
    lhumerus lradius
    lradius lwrist
    lwrist lhand lthumb
    lhand lfingers
    rclavicle rhumerus
    rhumerus rradius
    rradius rwrist
    rwrist rhand rthumb
    rhand rfingers
  end

#!OML:ASF F:\VICON\USERDATA\INSTALL\rory3\rory3.ASF
:FULLY-SPECIFIED
:DEGREES
49
root -12.7832 17.8633 -6.62862 -1.50152 -3.32562 -3.25693
lowerback 11.6213 2.32267 2.76978
upperback 0.440399 3.51516 1.01769
thorax -5.95157 1.66107 -1.06839
lowerneck -22.93 -6.14981 -11.8317
upperneck 28.4664 -7.09105 8.26226
head 14.3833 -3.21466 4.00438
rclavicle 4.3686e-014 -7.40473e-015
rhumerus -28.2958 -13.0718 -80.1645
rradius 28.3382
rwrist 7.06394
rhand -16.2368 8.01824
rfingers 7.12502
rthumb 9.97175 -21.7256
lclavicle 4.3686e-014 -7.40473e-015
lhumerus -39.4528 7.84416 82.2798
lradius 30.1897
lwrist -7.56403
lhand -16.9114 27.998
lfingers 7.12502
lthumb 9.3208 57.772
rfemur 2.93879 -0.214212 27.0282
rtibia 20.5126
rfoot -15.6521 -1.4722
rtoes 2.91211
lfemur -22.5255 -1.14557 -17.9863
ltibia 33.4046
lfoot -5.04292 8.17124
ltoes -6.02164
50
root -12.7823 17.8586 -6.50991 -1.32992 -3.31154 -3.39251
lowerback 11.5111 2.37787 2.88602
upperback 0.411447 3.6005 1.01688
thorax -5.91035 1.70042 -1.14319
lowerneck -22.8829 -6.14731 -11.9796
upperneck 28.4226 -7.11008 8.49247
head 14.3748 -3.20817 4.12157
rclavicle -8.69994e-015 -5.46658e-015
rhumerus -27.9312 -12.7714 -80.2506
rradius 28.5435
rwrist 7.15319
rhand -16.2178 8.79381
rfingers 7.12502
rthumb 9.99004 -20.9491
lclavicle -8.69994e-015 -5.46658e-015
lhumerus -39.329 8.231 82.0414
lradius 29.5819
lwrist -7.96352
lhand -17.1584 27.3388
lfingers 7.12502
lthumb 9.08251 57.1233
rfemur 3.42808 -0.240386 27.1585
rtibia 20.0531
rfoot -15.6288 -1.53513
rtoes 2.34976
lfemur -22.657 -1.2816 -17.7811
ltibia 31.1727
lfoot -4.68472 8.01605
ltoes -6.76665
51
root -12.7841 17.8512 -6.39182 -1.19212 -3.30627 -3.58413
lowerback 11.4647 2.39984 3.02753
upperback 0.386194 3.64669 1.0091
thorax -5.90012 1.71909 -1.23602
lowerneck -22.8444 -6.12315 -11.9762
upperneck 28.3767 -7.10377 8.57035
head 14.349 -3.19479 4.15385
rclavicle 1.2848e-014 -1.96051e-014
rhumerus -27.6689 -12.4076 -80.4729
rradius 28.8814
rwrist 7.11461
rhand -16.337 8.88167
rfingers 7.12502
rthumb 9.87503 -20.8667
lclavicle 1.2848e-014 -1.96051e-014
lhumerus -39.2147 8.7392 81.6079
lradius 28.8127
lwrist -8.61833
lhand -17.6668 25.5789
lfingers 7.12502
lthumb 8.59193 55.3841
rfemur 3.95931 -0.148902 27.3895
rtibia 19.5543
rfoot -15.5935 -1.69664
rtoes 2.12461
lfemur -22.735 -1.44657 -17.4678
ltibia 28.9038
lfoot -4.34009 7.74856
ltoes -8.41817
52
root -12.7847 17.8415 -6.26981 -1.06571 -3.32933 -3.82311
lowerback 11.4549 2.43872 3.23135
upperback 0.308434 3.72662 1.00073
thorax -5.9604 1.75052 -1.37292
lowerneck -22.7778 -6.11174 -12.038
upperneck 28.3994 -7.11769 8.70261
head 14.3559 -3.19135 4.21876
rclavicle -3.5193e-014 -8.90804e-015
rhumerus -27.6096 -11.9317 -80.6988
rradius 29.3709
rwrist 6.79616
rhand -16.4551 8.80559
rfingers 7.12502
rthumb 9.76114 -20.9482
lclavicle -3.5193e-014 -8.90804e-015
lhumerus -39.2653 9.09462 81.2547
lradius 28.3268
lwrist -8.95691
lhand -17.6584 24.8425
lfingers 7.12502
lthumb 8.59998 54.6473
rfemur 4.54758 -0.180482 27.6212
rtibia 19.0109
rfoot -15.585 -1.64106
rtoes 2.50596
lfemur -22.8017 -1.61149 -17.0839
ltibia 26.6194
lfoot -3.99674 7.40862
ltoes -9.19455
53
root -12.784 17.8334 -6.14817 -0.912921 -3.40391 -4.05504
lowerback 11.3635 2.50496 3.38716
upperback 0.275123 3.83441 1.0369
thorax -5.93223 1.79991 -1.43507
lowerneck -22.8617 -6.10865 -12.1301
upperneck 28.4749 -7.11818 8.84115
head 14.4184 -3.18152 4.29517
rclavicle -2.68437e-014 -6.01324e-015
rhumerus -27.1974 -11.6927 -80.7709
rradius 29.3483
rwrist 6.80031
rhand -16.5838 9.0281
rfingers 7.12502
rthumb 9.63694 -20.7315
lclavicle -2.68437e-014 -6.01324e-015
lhumerus -39.2785 9.61798 80.9897
lradius 27.9886
lwrist -9.22754
lhand -17.458 25.0719
lfingers 7.12502
lthumb 8.79343 54.8687
rfemur 5.11147 -0.168011 27.8415
rtibia 18.4503
rfoot -15.406 -1.6479
rtoes 2.14955
lfemur -22.8514 -1.69497 -16.7328
ltibia 24.3125
lfoot -3.75041 7.04753
ltoes -8.31067
54
root -12.7801 17.828 -6.02873 -0.770071 -3.4221 -4.23443
lowerback 11.2763 2.54027 3.47697
upperback 0.279003 3.89257 1.0959
thorax -5.87493 1.82816 -1.42765
lowerneck -22.9769 -6.13972 -12.1188
upperneck 28.489 -7.13815 8.7952
head 14.4494 -3.19227 4.26938
rclavicle -2.50919e-014 -1.54058e-015
rhumerus -26.8773 -11.2582 -80.833
rradius 29.6097
rwrist 6.65407
rhand -16.6884 8.75275
rfingers 7.12502
rthumb 9.53597 -21.0115
lclavicle -2.50919e-014 -1.54058e-015
lhumerus -39.2334 10.1048 80.8397
lradius 27.6101
lwrist -9.50392
lhand -17.6408 24.7439
lfingers 7.12502
lthumb 8.61696 54.548
rfemur 5.63485 -0.172269 28.0035
rtibia 17.9471
rfoot -15.1724 -1.80936
rtoes 1.34847
lfemur -22.7969 -1.95527 -16.4226
ltibia 21.944
lfoot -3.53761 6.77519
ltoes -7.75753
55
root -12.7736 17.823 -5.90162 -0.705631 -3.4118 -4.28552
lowerback 11.1684 2.56869 3.45001
upperback 0.272801 3.92358 1.11698
thorax -5.82283 1.84574 -1.38972
lowerneck -22.8745 -6.07681 -11.8683
upperneck 28.468 -7.09931 8.62934
head 14.3923 -3.17243 4.1646
rclavicle 7.82839e-014 8.1129e-015
rhumerus -26.7107 -10.9987 -80.8657
rradius 29.9333
rwrist 6.50368
rhand -16.761 8.62855
rfingers 7.12502
rthumb 9.46593 -21.1389
lclavicle 7.82839e-014 8.1129e-015
lhumerus -39.3059 10.4522 80.6987
lradius 27.3272
lwrist -9.73165
lhand -17.8482 24.2683
lfingers 7.12502
lthumb 8.41679 54.0806
rfemur 6.23572 -0.260964 27.9792
rtibia 17.5523
rfoot -15.1911 -1.83676
rtoes 1.19774
lfemur -22.4916 -2.51452 -16.1899
ltibia 19.5395
lfoot -3.27182 6.778
ltoes -8.98688
56
root -12.7687 17.8134 -5.76918 -0.667634 -3.46294 -4.21698
lowerback 11.047 2.63128 3.3149
upperback 0.263984 3.98225 1.07876
thorax -5.7676 1.87918 -1.3569
lowerneck -22.7202 -5.94386 -11.6186
upperneck 28.4496 -7.01208 8.60633
head 14.3256 -3.11365 4.13074
rclavicle 3.33135e-014 -1.57537e-014
rhumerus -26.5638 -10.7301 -80.9491
rradius 30.2532
rwrist 6.25311
rhand -16.6552 8.57238
rfingers 7.12502
rthumb 9.56803 -21.1904
lclavicle 3.33135e-014 -1.57537e-014
lhumerus -39.3233 10.7605 80.5103
lradius 26.9867
lwrist -9.99992
lhand -18.072 23.9691
lfingers 7.12502
lthumb 8.20086 53.79
rfemur 6.84989 -0.279524 27.8277
rtibia 17.2906
rfoot -15.3833 -1.81839
rtoes 0.911439
lfemur -22.0502 -3.19908 -16.0431
ltibia 17.1042
lfoot -3.04814 7.18368
ltoes -10.4142
57
root -12.7657 17.8018 -5.63984 -0.55489 -3.57313 -4.23133
lowerback 10.9571 2.70957 3.2057
upperback 0.240106 4.06889 1.06754
thorax -5.74526 1.92504 -1.3166
lowerneck -22.7225 -5.89298 -11.5242
upperneck 28.4446 -6.9943 8.6668
head 14.3197 -3.08702 4.14357
rclavicle 5.79209e-014 1.37161e-014
rhumerus -26.3035 -10.5604 -81.0444
rradius 30.4346
rwrist 6.14946
rhand -16.5924 8.55142
rfingers 7.12502
rthumb 9.62867 -21.2085
lclavicle 5.79209e-014 1.37161e-014
lhumerus -39.2899 11.1112 80.3045
lradius 26.652
lwrist -10.3061
lhand -17.8981 24.0847
lfingers 7.12502
lthumb 8.36863 53.899
rfemur 7.30951 -0.117466 27.8222
rtibia 17.1302
rfoot -15.4992 -1.92723
rtoes 0.50128
lfemur -21.6914 -3.69798 -15.8341
ltibia 14.6827
lfoot -2.74799 7.77304
ltoes -11.7773
58
root -12.7597 17.7922 -5.51249 -0.387424 -3.66052 -4.2678
lowerback 10.9173 2.79247 3.11812
upperback 0.115498 4.17075 1.06652
thorax -5.85646 1.97414 -1.28615
lowerneck -22.7449 -5.86555 -11.4244
upperneck 28.5562 -6.97372 8.59541
head 14.3625 -3.07709 4.10463
rclavicle 2.01394e-014 4.62174e-015
rhumerus -26.2009 -10.4854 -81.0673
rradius 30.5463
rwrist 6.16467
rhand -16.7146 8.70003
rfingers 7.12502
rthumb 9.51072 -21.0653
lclavicle 2.01394e-014 4.62174e-015
lhumerus -39.4471 11.365 80.1264
lradius 26.4266
lwrist -10.5948
lhand -17.7428 24.0647
lfingers 7.12502
lthumb 8.51854 53.8729
rfemur 7.6208 0.0467108 27.8189
rtibia 17.0524
rfoot -15.4755 -1.93569
rtoes 0.671665
lfemur -21.3732 -4.42187 -15.5516
ltibia 12.3383
lfoot -2.34037 8.68002
ltoes -12.2299
59
root -12.7504 17.7821 -5.38286 -0.324032 -3.71961 -4.29173
lowerback 10.9101 2.83877 3.06509
upperback 0.0198651 4.22864 1.06567
thorax -5.95492 2.00122 -1.26914
lowerneck -22.6485 -5.81497 -11.2881
upperneck 28.632 -6.90096 8.39646
head 14.3496 -3.06074 4.01581
rclavicle 1.05666e-014 -8.79622e-015
rhumerus -26.2494 -10.3103 -81.1004
rradius 30.8149
rwrist 5.89625
rhand -16.7988 8.87447
rfingers 7.12502
rthumb 9.4295 -20.8946
lclavicle 1.05666e-014 -8.79622e-015
lhumerus -39.5939 11.81 79.8524
lradius 26.0894
lwrist -10.9816
lhand -17.5693 24.1564
lfingers 7.12502
lthumb 8.68598 53.9577
rfemur 8.06707 0.0783971 27.7539
rtibia 16.9436
rfoot -15.3509 -1.79286
rtoes 0.0141623
lfemur -20.9782 -5.09753 -15.3523
ltibia 10.2679
lfoot -1.87587 9.6905
ltoes -13.9064
60
root -12.7408 17.7697 -5.24697 -0.253916 -3.80729 -4.2391
lowerback 10.71 2.8724 2.9825
upperback 0.0711081 4.24998 1.01081
thorax -5.789 2.01763 -1.27001
lowerneck -22.8576 -5.82891 -11.2896
upperneck 28.7445 -6.90707 8.40679
head 14.4454 -3.05819 4.02159
rclavicle -9.33667e-015 2.23633e-015
rhumerus -26.0061 -10.2629 -81.2127
rradius 31.0063
rwrist 5.76499
rhand -16.6598 8.99093
rfingers 7.12502
rthumb 9.56361 -20.772
lclavicle -9.33667e-015 2.23633e-015
lhumerus -39.5266 12.0639 79.6845
lradius 25.8143
lwrist -11.1348
lhand -17.18 25.1158
lfingers 7.12502
lthumb 9.06167 54.9011
rfemur 8.49415 0.0932496 27.5909
rtibia 16.8608
rfoot -15.1948 -1.67356
rtoes -1.49475
lfemur -20.5169 -4.52769 -15.7023
ltibia 8.37874
lfoot -1.65932 9.75377
ltoes -16.1402
61
root -12.7289 17.7573 -5.10439 -0.168934 -3.85777 -4.17121
lowerback 10.4186 2.90953 2.92141
upperback 0.14682 4.27312 0.924297
thorax -5.54212 2.03583 -1.30939
lowerneck -23.1184 -5.82124 -11.2569
upperneck 28.8033 -6.92045 8.51848
head 14.533 -3.03914 4.06075
rclavicle -2.85008e-014 6.4605e-015
rhumerus -25.6437 -10.266 -81.3745
rradius 31.0452
rwrist 5.81975
rhand -16.7523 8.83382
rfingers 7.12502
rthumb 9.4743 -20.9332
lclavicle -2.85008e-014 6.4605e-015
lhumerus -39.4722 12.1819 79.5541
lradius 25.6653
lwrist -11.2582
lhand -16.6149 26.0953
lfingers 7.12502
lthumb 9.60691 55.8563
rfemur 8.89863 0.125224 27.4109
rtibia 16.8911
rfoot -15.3147 -1.60579
rtoes -1.9181
lfemur -19.9247 -3.99101 -16.0576
ltibia 6.53257
lfoot -1.69452 10.1711
ltoes -17.5943
62
root -12.7139 17.7442 -4.9622 -0.079531 -3.79043 -4.05434
lowerback 10.2657 2.92044 2.82695
upperback 0.0580881 4.26773 0.823546
thorax -5.5488 2.0339 -1.35487
lowerneck -22.9146 -5.76208 -11.206
upperneck 28.7162 -6.89889 8.59743
head 14.4489 -3.01742 4.08809
rclavicle -6.83322e-015 6.75868e-015
rhumerus -25.6283 -10.1966 -81.5035
rradius 31.123
rwrist 5.71486
rhand -17.1254 8.41669
rfingers 7.12502
rthumb 9.11435 -21.3664
lclavicle -6.83322e-015 6.75868e-015
lhumerus -39.7007 12.1107 79.4578
lradius 25.6662
lwrist -11.2237
lhand -16.2065 26.5064
lfingers 7.12502
lthumb 10.001 56.2488
rfemur 9.28187 0.187518 27.2038
rtibia 17.0156
rfoot -15.5775 -1.66289
rtoes -1.94938
lfemur -19.2447 -3.57367 -16.4824
ltibia 4.73713
lfoot -1.82416 10.8221
ltoes -18.091
63
root -12.6964 17.7325 -4.82602 0.0325558 -3.66471 -4.07204
lowerback 10.2072 2.87903 2.88499
upperback -0.0991239 4.21928 0.771505
thorax -5.67533 2.00399 -1.43648
lowerneck -22.6263 -5.72055 -11.2157
upperneck 28.6811 -6.88085 8.64167
head 14.3714 -3.01142 4.11277
rclavicle 5.93372e-014 9.34288e-015
rhumerus -25.6548 -10.3413 -81.5317
rradius 31.0235
rwrist 5.72018
rhand -17.077 8.44446
rfingers 7.12502
rthumb 9.16108 -21.3366
lclavicle 5.93372e-014 9.34288e-015
lhumerus -40.0542 11.987 79.3699
lradius 25.7642
lwrist -11.2991
lhand -15.8563 26.8398
lfingers 7.12502
lthumb 10.3388 56.5657
rfemur 9.59633 0.238373 27.1499
rtibia 17.1448
rfoot -15.6382 -1.73791
rtoes -2.48018
lfemur -18.6081 -3.21091 -16.7587
ltibia 3.20511
lfoot -1.99243 11.365
ltoes -17.7228
